<?xml version="1.0" standalone="no"?>
<!DOCTYPE svg PUBLIC "-//W3C//DTD SVG 20010904//EN"
 "http://www.w3.org/TR/2001/REC-SVG-20010904/DTD/svg10.dtd">
<svg version="1.0" xmlns="http://www.w3.org/2000/svg"
 width="1024.000000pt" height="396.000000pt" viewBox="0 0 1024.000000 396.000000"
 preserveAspectRatio="xMidYMid meet">

<g transform="translate(0.000000,396.000000) scale(0.100000,-0.100000)"
fill="#000000" stroke="none">
<path d="M0 1980 l0 -1980 5120 0 5120 0 0 1980 0 1980 -5120 0 -5120 0 0
-1980z m7444 1694 c25 -25 30 -62 18 -141 -13 -78 -70 -262 -127 -408 -19 -50
-35 -93 -35 -97 0 -8 26 -5 263 38 104 19 242 48 307 64 65 17 130 30 144 30
29 0 56 -24 56 -50 0 -37 -27 -50 -103 -50 -79 0 -307 -34 -544 -80 -84 -17
-155 -30 -158 -30 -2 0 -16 -22 -29 -48 -86 -170 -303 -925 -626 -2182 -56
-217 -109 -403 -117 -412 -33 -37 -85 -15 -97 39 -10 43 11 132 38 163 26 32
42 79 122 372 47 171 415 1478 431 1527 2 9 -15 -15 -39 -53 -75 -120 -209
-308 -274 -387 -143 -172 -299 -296 -395 -314 -49 -9 -103 15 -129 57 -53 87
-3 336 85 424 34 34 87 33 114 -2 30 -39 26 -62 -23 -128 -45 -61 -62 -101
-72 -180 -9 -60 8 -67 76 -30 182 99 468 486 711 962 44 86 75 158 70 160 -11
4 -630 -103 -684 -119 -21 -5 -41 -17 -44 -25 -7 -18 -55 -44 -83 -44 -32 0
-78 27 -85 51 -10 30 2 67 25 79 11 6 75 17 142 26 214 26 742 105 763 113 17
7 31 46 73 197 85 302 134 452 154 474 23 24 51 26 72 4z m-3734 -319 c19 -23
7 -115 -44 -330 -53 -227 -88 -406 -81 -413 6 -6 12 -5 270 52 150 34 333 78
382 92 23 6 63 -25 63 -49 0 -47 -93 -71 -550 -142 -96 -15 -178 -30 -182 -34
-10 -10 -114 -644 -142 -871 -14 -113 -39 -371 -56 -575 -34 -421 -37 -442
-56 -472 -20 -33 -67 -31 -93 3 -26 33 -27 63 -2 106 15 25 28 104 55 318 84
666 109 842 160 1150 30 179 53 326 52 328 -2 1 -52 -8 -113 -19 l-111 -22
-82 -171 c-161 -334 -253 -562 -339 -831 -28 -88 -55 -180 -61 -204 -20 -77
-85 -119 -135 -87 -38 25 -41 57 -11 137 55 149 76 418 41 525 -45 134 -120
186 -334 230 -62 13 -120 29 -127 35 -22 18 -17 73 9 96 75 70 391 176 777
263 80 18 150 38 156 44 7 6 71 124 144 261 164 309 230 429 287 523 41 66 47
72 77 72 19 0 39 -7 46 -15z m1915 -979 c16 -24 11 -65 -20 -189 -7 -28 -7
-28 28 -22 30 6 40 3 61 -19 15 -14 26 -34 26 -46 0 -11 4 -20 8 -20 4 0 34
27 67 61 70 70 101 89 149 89 76 0 84 -70 31 -295 -69 -290 -85 -375 -85 -445
0 -92 -10 -110 -59 -110 -31 0 -40 5 -49 25 -25 55 -14 125 69 418 33 117 62
230 66 252 l6 40 -38 -35 c-57 -53 -128 -159 -170 -254 -41 -92 -62 -109 -104
-86 -25 13 -27 51 -7 142 8 35 16 83 19 108 l5 45 -34 -40 c-37 -44 -100 -159
-134 -245 -35 -88 -68 -111 -105 -73 -27 26 -14 87 43 211 51 108 117 290 109
298 -2 2 -63 -67 -135 -155 -172 -207 -238 -261 -319 -261 -45 0 -77 20 -98
61 l-16 29 -57 -46 c-74 -61 -125 -84 -189 -84 -41 0 -58 5 -80 24 -24 21 -29
33 -33 91 l-5 68 -81 -94 c-44 -52 -102 -123 -128 -157 -57 -75 -97 -102 -149
-102 -79 0 -136 62 -144 157 -2 35 3 98 15 161 13 68 16 102 8 102 -25 0 -178
-173 -249 -282 -42 -64 -86 -123 -98 -132 -33 -23 -73 -20 -105 8 -24 20 -28
32 -32 87 -6 110 61 333 164 546 72 148 125 192 176 146 28 -25 22 -70 -32
-224 -28 -78 -50 -144 -50 -146 0 -3 24 16 53 41 63 53 149 96 195 96 70 0
122 -52 122 -121 0 -18 -14 -86 -31 -150 -22 -83 -29 -129 -25 -154 7 -35 30
-56 53 -48 7 3 50 50 96 106 91 110 280 297 300 297 7 0 35 23 62 51 94 96
181 121 266 76 24 -13 56 -27 71 -30 37 -10 44 -41 24 -120 -22 -87 -20 -147
5 -147 20 0 118 102 269 281 87 102 172 197 190 212 40 34 84 36 105 3z m789
-11 c40 -41 26 -95 -34 -125 -56 -28 -109 -24 -129 11 -24 44 -8 77 52 105 60
28 89 30 111 9z"/>
<path d="M3498 2922 c-105 -194 -201 -382 -194 -382 17 0 183 43 189 49 8 8
109 502 104 508 -2 1 -46 -77 -99 -175z"/>
<path d="M3060 2433 c-124 -31 -389 -107 -470 -135 -92 -32 -260 -108 -260
-117 0 -4 41 -16 91 -28 221 -53 314 -146 353 -352 9 -47 18 -86 20 -88 2 -2
11 18 21 44 31 83 155 362 231 522 41 85 73 158 72 161 -2 4 -28 0 -58 -7z"/>
<path d="M4818 2063 c-61 -47 -109 -116 -129 -185 -10 -35 8 -37 57 -7 45 28
154 148 154 170 0 55 -28 63 -82 22z"/>
</g>
</svg>
